<svg width="503" height="532" xmlns="http://www.w3.org/2000/svg" xmlns:xlink="http://www.w3.org/1999/xlink"><defs><path d="M.606 294.63v28.192a8.56 8.56 0 0 0 3.81 7.122L220.533 474.05a14.382 14.382 0 0 0 15.96 0l162.118-107.91 1.036-4.356a21.942 21.942 0 0 1 11.326-14.442l57.485-167.499c4.063-11.381-.15-24.07-10.21-30.752L238.228 2.956a15.575 15.575 0 0 0-8.618-2.602h-8.014l-56.903 191.83L.606 294.63z" id="a"/><linearGradient x1="39.606%" y1="76.518%" x2="53.281%" y2="54.668%" id="c"><stop stop-color="#FAF8F0" offset="0%"/><stop stop-color="#FFF" offset="100%"/></linearGradient><path d="M177.294 203.885s-7.409-41.98 12.719-86.574c14.62-32.392 28.13-76.39 34.428-98.043 1.887-6.489 9.522-9.275 15.141-5.529L461.93 161.997c8.935 5.958 12.623 17.27 8.915 27.355-8.936 24.306-29.048 58.66-40.69 91.914-16.7 47.704-18.943 78.59-18.943 78.59L177.294 203.886z" id="d"/><path d="M177.294 203.885s-10.099-3.234-67.374 34.117L16.537 300.08c-4.44 2.962-4.44 9.495 0 12.456L233.133 456.96a14.382 14.382 0 0 0 15.96 0l100.463-66.8c51.69-31.494 61.655-30.303 61.655-30.303L177.294 203.885z" id="e"/><path d="M41.033 193.585h330.54v162.35c-8.586 4.54-19.024 10.472-31.747 18.224l-98.712 65.614L41.033 306.36V193.585z" id="f"/><path d="M332.791 129.302s-31.75-6.796-64.666-25.872c-13.325-7.722-21.234-22.76-36-31.95-12.348-7.683-51.434-22.43-62.55-30.15C153.375 30.08 132.372.444 132.372.444c-6.688 2.503-28.614 24.937-55.309 43.674C50.368 62.854.007 81.809.007 81.809L200.09 212.821l132.702-83.519z" id="h"/><path d="M40.953 16c-4.5 1-6.5 3-10 5s-8.5 6-9.5 7.5-11 14-12.5 18-7 8-8.5 9.5 1 3 3.5 5.5 0 5 9.5 4 6.5 0 9.5 0c1.646 0 1.93 7.43 5.047 8.635 2.563.99 9.422.695 11.453 2.5 4.5 4 7-1.135 9.5 3.865s2 9 6 10 3.5 1 7 1 7.5-1 9.5 2.5S84.5 89.5 87 92s5.5-1 12-1 8.453 1.5 11.453 0-1-4.5 7.5-3 11 3 13.5 4 14.047-2.5 15.047-4 3.953-2 3.953-6S151 69.135 149 65.635c-2-3.5-6.047-2.135-8.547-6.135-2.5-4-3.5-14.5-3.5-17s1-7-1.5-10.5-.5-5-8-8-22-4-26.5-8 3-1-10-8.5-10-7.5-17-7.5-10 0-14 1-11.5 4-12.5 6.5-2.5 7-4.5 8.5 2.5-1-2 0z" id="j"/><path d="M7 7.135c0-1 4.5-5 7-6s2.5 0 5.5 0 1-1.5 7 0S38.5 1.968 40 3.8c1.5 1.834 1.5 4.834 6 5.834 3 .666 6.5 2.166 10.5 4.5l8 1v3c.667 2.333 0 3.166-2 2.5-3-1-5-2.5-9-2.5s-1.5-.5-7.5 1-9 1.5-11.5 1.5-5-1-8-2.5-5.5-6-10-3-5.5 3-7.5 3-5-2-6-3-2.5-3.445-2-4.473c.5-1.027 6-2.527 6-3.527z" id="l"/><path d="M1 6.5C1 5.833 2.333 4.333 5 2 6 0 7.167-.5 8.5.5c2 1.5 3 .25 4 1.5s-1 .5 2.5 2.5 5 2 4.5 3.5 1 1-3 2.5-3.406 1.5-6.203 1.5S9 13.5 5 12C2.333 11 .667 9.667 0 8c.667-.333 1-.833 1-1.5z" id="n"/><path d="M155 258.534v-2.904a.4.4 0 0 1 .621-.334l1.879 1.246v3.658l-2.5-1.666zm0 1.202l2.5 1.666v3.812l-2.07-1.434a1 1 0 0 1-.43-.822v-3.222zm5.992 2.793l-2.492-1.662v-3.662l2.045 1.355a1 1 0 0 1 .447.834v3.135zm0 1.201v3.14a.4.4 0 0 1-.628.33l-1.864-1.293v-3.838l2.492 1.661z" id="q"/><filter x="-50.1%" y="-24.9%" width="200.1%" height="149.8%" filterUnits="objectBoundingBox" id="p"><feOffset in="SourceAlpha" result="shadowOffsetOuter1"/><feGaussianBlur stdDeviation="1" in="shadowOffsetOuter1" result="shadowBlurOuter1"/><feColorMatrix values="0 0 0 0 1 0 0 0 0 0.307922263 0 0 0 0 0.21241714 0 0 0 1 0" in="shadowBlurOuter1"/></filter><path d="M170 268.304V265.4a.4.4 0 0 1 .621-.333l1.879 1.245v3.659l-2.5-1.667zm0 1.202l2.5 1.667v3.812l-2.07-1.435a1 1 0 0 1-.43-.822v-3.222zm5.992 2.793l-2.492-1.662v-3.662l2.045 1.355a1 1 0 0 1 .447.834v3.135zm0 1.202v3.14a.4.4 0 0 1-.628.329l-1.864-1.292v-3.839l2.492 1.662z" id="s"/><filter x="-50.1%" y="-24.9%" width="200.1%" height="149.8%" filterUnits="objectBoundingBox" id="r"><feOffset in="SourceAlpha" result="shadowOffsetOuter1"/><feGaussianBlur stdDeviation="1" in="shadowOffsetOuter1" result="shadowBlurOuter1"/><feColorMatrix values="0 0 0 0 1 0 0 0 0 0.307922263 0 0 0 0 0.21241714 0 0 0 1 0" in="shadowBlurOuter1"/></filter><path d="M163.6 286.135v-12.858a.1.1 0 0 1 .154-.085l3.382 2.148a1 1 0 0 1 .464.844v12.65l-4-2.7z" id="t"/><path d="M0 74.5L6 0c4.333 3 8.833 3 13.5 0L25 74.5c-2 3.333-6.167 5-12.5 5S2 77.833 0 74.5z" id="u"/><path d="M217.75 216.429c4.142 0 7.5-1.535 7.5-3.429v-11h-15v11c0 1.894 3.358 3.429 7.5 3.429z" id="x"/><filter x="-20%" y="-20.8%" width="140%" height="141.6%" filterUnits="objectBoundingBox" id="w"><feOffset in="SourceAlpha" result="shadowOffsetOuter1"/><feGaussianBlur stdDeviation="1" in="shadowOffsetOuter1" result="shadowBlurOuter1"/><feColorMatrix values="0 0 0 0 1 0 0 0 0 0.307922263 0 0 0 0 0.21241714 0 0 0 1 0" in="shadowBlurOuter1"/></filter><radialGradient cx="100%" cy="31.358%" fx="100%" fy="31.358%" r="89.384%" gradientTransform="matrix(-.98312 .17096 -.18295 -.9187 2.04 .43)" id="y"><stop stop-color="#FFF" offset="0%"/><stop stop-color="#E8E9F9" offset="11.836%"/><stop stop-color="#A4A6CA" stop-opacity="0" offset="100%"/></radialGradient><path d="M15.5 8c-2-4-3.833-6.5-5.5-7.5C7.5-1 3.5 3.5 3 4s-4 8-2.5 9.5S2 15.5 3 17s0 1.5 1.5 3 1.5-1.5 3-1 3 1 3 2.5 2.5 1.5 4 0c1-1 1.333-2.833 1-5.5V8z" id="z"/><path d="M16.5.5c.666 3.16.832 6.326.5 9.5-.503 4.801-5.616 20.697-6 23.5-.795 5.809.01 10.742-1 15.5-.989 4.662-2.782 8.8-4.5 13-3 .5-4.5-.5-4.5-1 0-.286.732-2.95.5-12.5-.083-3.434-.79-9.966-1-14.5-.229-4.935 1.394-11.576.5-17.5 8.667-9.667 13.833-15 15.5-16z" id="B"/><path d="M1.5 0c1.667 5.333 4 8.667 7 10 2-1 10 0 16.5 3.5 4.333 2.333 9 6 14 11C48 30.167 53.5 39 55.5 51c-3 4.5-12 15-26.5 20 .5-10 3-26.25 1.5-30.5-.667.333-1.417-.167-2.25-1.5-3.833 1-9.417-1-16.75-6-2.068-1.41-2.648-3.067-4-4-2.296-1.584-3.796-2.25-4.5-2 1.333-2 2-3.333 2-4-2 0-3.5 1-5 4 .459-2.751 2.357-6.806 2.5-13.5.043-2.025-.29-6.525-1-13.5z" id="D"/><path d="M11 1c-4 .5-5 3-5 5s1 16 1 18c-.667 0-.833.5-.5 1.5-1 0-1.667.5-2 1.5H0l1 10c8-1.333 12.833-2.667 14.5-4 2-3.5 3.5-19 3-23S15 .5 11 1z" id="F"/><path d="M5 20C0 11.667-1.167 6.167 1.5 3.5c1.5-1.5 2 0 3-1s0-1.5 1-2 7 1 11 2.5c.5 2-4 9-5 10.5-.667 1-2.833 3.167-6.5 6.5z" id="H"/></defs><g fill="none" fill-rule="evenodd"><g transform="translate(0 .365)"><path d="M24.287 391.541l202.14 134.784a25.806 25.806 0 0 0 28.703-.044l164.293-110.716c7.393-4.962 7.376-15.853-.033-20.792L210.34 255.38a12.483 12.483 0 0 0-13.851 0L24.287 370.726c-7.422 4.949-7.422 15.866 0 20.815" fill="#272939" opacity=".5"/><path d="M0 347.334v-5l173.936-114.779a7.218 7.218 0 0 1 8.01 0l64.508-225.54s8.205-3.316 12.943-.574l228.165 149.18c12.622 8.252 18.027 24.037 13.116 38.305L437.75 372.728c-2.136 6.625-6.801 12.753-11.967 17.415v.001l-9.026 6.019L259.203 501.03a30.942 30.942 0 0 1-34.335 0L2.9 352.763a6.53 6.53 0 0 1-2.9-5.429" fill="#D1B49A"/><path d="M3.207 348.329c-4.276-2.852-4.276-9.142 0-11.993l170.097-113.231a7.193 7.193 0 0 1 7.98 0L239.853 9.282c1.94-7.086 10.213-10.224 16.358-6.207l227.296 148.611c12.574 8.222 17.958 23.946 13.065 38.16l-61.022 177.28-.252.783a39.407 39.407 0 0 1-11.104 17.165l-8.992 5.996-158.356 105.402a28.349 28.349 0 0 1-31.462 0L3.207 348.328" fill="#867054"/><path d="M496.571 189.846l-61.022 177.28c-2.38 7.383-6.21 13.304-11.356 17.948l-8.992 5.996-136.651 90.965c-9.527 6.353-30.523 11.753-40.05 5.4 127.882-189.739 205.282-292.789 232.2-309.15 22.95-13.95 26.726 9.077 25.871 11.561z" fill="#513B20" opacity=".5"/><path d="M186.588 228.265L246.1 10.996c.607-2.215 2.554-3.206 4.214-3.206.837 0 1.63.24 2.355.714l227.296 148.612a26.31 26.31 0 0 1 10.483 30.618l-61.063 177.4-.252.784a32.974 32.974 0 0 1-8.943 14.034l-8.58 5.722-158.351 105.399a21.817 21.817 0 0 1-12.144 3.68 21.81 21.81 0 0 1-12.14-3.677L10.582 345.4c-2.183-1.457-2.182-4.667.002-6.122L176.89 228.505a.707.707 0 0 1 .403-.124c.145 0 .28.04.4.121l4.47 2.98" stroke="#BE9365" stroke-width="1.08" stroke-linecap="round" stroke-linejoin="round" stroke-dasharray="3.603599643611915,3.603599643611915"/><path stroke="#F7931E" stroke-width=".72" stroke-linecap="round" stroke-linejoin="round" d="M183.662 232.482l1.498.998.476-1.737"/><path d="M393.26 353.815l-144.166 95.94a14.382 14.382 0 0 1-15.96 0L16.537 305.332" fill="#FFF"/><path d="M393.26 353.815l-144.166 95.94a14.382 14.382 0 0 1-15.96 0L16.537 305.332" stroke="#000" stroke-width=".72" stroke-linecap="round" stroke-linejoin="round"/><g transform="translate(12.6 11.7)"><mask id="b" fill="#fff"><use xlink:href="#a"/></mask><use fill="#F4F1EC" xlink:href="#a"/><path stroke="#DCD3C4" stroke-width="1.8" d="M1.506 295.13v27.692a7.66 7.66 0 0 0 3.409 6.374L221.033 473.3a13.482 13.482 0 0 0 14.962 0l161.822-107.714.955-4.011a22.843 22.843 0 0 1 11.466-14.865l57.372-167.17c3.925-10.993-.144-23.247-9.86-29.7L237.73 3.705a14.675 14.675 0 0 0-8.12-2.452h-7.342L165.46 192.767 1.506 295.13z"/><path fill="#DFDCD3" opacity=".6" mask="url(#b)" d="M228.15 445.585v39.16l214.2-99.46 54-224.55-44.1 3.15-221.4 272.25z"/></g><use fill="url(#c)" xlink:href="#d"/><path stroke="#DCD3C4" stroke-width="1.8" d="M178.12 203.353l232.332 154.916c.117-1.164.275-2.533.478-4.1.591-4.569 1.444-9.884 2.607-15.89 3.318-17.147 8.447-36.397 15.768-57.31a278.145 278.145 0 0 1 3.683-9.888c3.871-9.845 8.387-19.963 14.56-32.934 1.508-3.167 10.278-21.331 12.596-26.256 4.45-9.455 7.557-16.598 9.855-22.85 3.565-9.694.02-20.568-8.57-26.295L239.083 14.488c-5.114-3.41-12.06-.873-13.778 5.032-10.489 36.06-22.485 71.603-34.472 98.161-7.107 15.747-11.274 32.217-13.03 48.809-1.264 11.954-1.18 22.828-.28 32.021.145 1.475.3 2.772.455 3.881.05.367.098.688.141.96z"/><path d="M391.95 324.535c4.8-34.8 21.75-81.15 50.85-139.05M377.55 315.535c4.8-34.8 21.75-81.15 50.85-139.05M363.6 305.185c4.8-34.8 21.75-81.15 50.85-139.05" stroke="#979797" stroke-width=".9" opacity=".2"/><use fill="#FFF" xlink:href="#e"/><path stroke="#DCD3C4" stroke-width="1.8" d="M176.948 204.735c-.593-.073-1.672.006-3.341.372-2.592.568-6.032 1.72-10.432 3.59-12.067 5.134-29.35 14.79-52.757 30.054l-93.382 62.078c-3.906 2.606-3.906 8.353 0 10.958l216.597 144.424a13.483 13.483 0 0 0 14.962 0l100.493-66.819c21.964-13.383 38.12-21.941 49.364-26.626 4.052-1.688 7.212-2.763 9.592-3.342.234-.057.456-.108.666-.153L176.948 204.735zm234.171 156.017l-.015-.002.018.002h-.003z"/><path d="M331.2 381.685c5.4 6.9 10.65 11.4 15.75 13.5 5.1 2.1 2.55 3.75-7.65 4.95-4.455-3.155-7.455-5.405-9-6.75-5.117-4.457-7.2-7.48-7.2-8.1 0-.9 2.7-2.1 8.1-3.6z" fill="#E7E4DC"/><path d="M40.953 306.308l79.264-52.664c30.968-20.19 46.493-27.348 53.18-29.85l198.176 132.14c-8.586 4.542-19.024 10.473-31.747 18.226l-.326.198-98.386 65.415-200.16-133.465z" fill="#EAE8E2"/><mask id="g" fill="#fff"><use xlink:href="#f"/></mask><g mask="url(#g)"><g transform="translate(41.025 230.554)"><mask id="i" fill="#fff"><use xlink:href="#h"/></mask><use fill="#3D3F59" xlink:href="#h"/><path stroke="#23243B" stroke-width="2" d="M330.237 129.729c-.957-.237-2.019-.51-3.18-.82a236.04 236.04 0 0 1-14.576-4.442c-15.124-5.125-30.395-11.79-44.858-20.171-5.161-2.992-9.33-6.717-15.758-13.546-.629-.668-3.14-3.356-3.771-4.027-6.551-6.96-10.973-10.956-16.498-14.393-4.924-3.065-11.283-6.02-30.754-14.617l-.955-.422c-17.956-7.933-26.122-11.833-30.883-15.14-2.923-2.03-6.102-4.715-9.5-7.982-3.182-3.059-6.515-6.585-9.951-10.49-4.362-4.957-8.67-10.265-12.734-15.572a308.687 308.687 0 0 1-4.79-6.424c-2.394 1.18-6.45 4.4-14.816 11.552-16.094 13.757-19.02 16.212-27.398 22.698-4.14 3.206-8.184 6.2-12.178 9.003-.306.215-.617.431-.931.648-7.784 5.357-17.843 11.015-29.64 16.84-10.219 5.046-21.163 9.936-32.107 14.483A597.242 597.242 0 0 1 2.19 82.043l197.91 129.59 130.137-81.904z"/><path d="M67.975 78.08c3.666 8.334 6.666 13 9 14 3.5 1.5 1 2 7.5 7s12.5 2.5 19.5 5c1.894.677 3.313 1.17 4.463 1.63 1.668.665-13.136 5.892-15.963 10.87-1.254 2.208 7.395 5.88 8 6.5.343.353 6.675 2.996 11-.5 4.325-3.495 13.71-8.82 14-8.5 4.5 5-11-5.5 9.5 4.5s33 6 41 5.5 11-3.5 15.5.5 14 3.5 17.5 6 27.5 12 29 10.5c.594-.594-.787.67 0-1 .17-.359 6.5-1.5 15 3.5 9.785 5.756 18.644 24.248 22.5 26 14.347 6.521 13.112-2.183 12.5-3-.437-.582-13.88-20.393-28-29.222-7.582-4.74-20.052-9.036-20.272-9.342-.777-1.079-1.795-2.278-3.728-3.935-3.5-3-6.5 1.5-9-5.5s-10.5-8.92-2.5-8.92 9 1.92 19.5 1.92 5.5-14.5 4.5-17-6.5-3-4.5-6c1.333-2 5.166-3 11.5-3l-17.5-21.5c-17.334-5.334-27-8.167-29-8.5-2-.334-10.167-2.167-24.5-5.5l-55 5.5-61.5 22.5z" fill="#23243B" opacity=".5" mask="url(#i)"/><path d="M138.475-1.42c21.542 22.216 31.875 34.216 31 36-2.755 5.613-40.423-17.207-43-14.5-19.994 21.003-43.443 33.704-59 42-20 10.667-41.167 26.167-63.5 46.5l-20.5-55c41-13.333 62.666-20.5 65-21.5 2.333-1 32.333-17.166 90-48.5v15zM160.975 143.58c.333 4.667 2.333 7.167 6 7.5 5.5.5 6.5 0 10.5 0s4.5 0 8.5 2 5 1.5 9 3 6.5-1 15 0 7-.5 12.5 1 11 3 11.5 1.5.5-3.5-2-5.5-2.5-4-4.5-4.5a16.438 16.438 0 0 0-4-.5c-16.334-1-27-1.666-32-2-5-.333-15.167-1.166-30.5-2.5zM99.975 129.58c2.333 6.334 4.5 10.334 6.5 12 .625.522 4.556 5.603 12.5 9 8.587 3.674 30.204 8.124 30 7-.066-.363-4.077-3.04-9-6-3.563-2.14-10.696-10.332-28-18.5-.481-.226-4.481-1.393-12-3.5z" fill="#23243B" opacity=".5" mask="url(#i)"/></g></g><g mask="url(#g)"><g transform="translate(108 250)"><mask id="k" fill="#fff"><use xlink:href="#j"/></mask><use fill="#686C89" xlink:href="#j"/><path d="M-.5 58.135c3.5-1 7.5-2 10.5-3.5s-1-6.5 6.5-4.5 10 6 10.5 7-.5 7 .5 9.5 3 4 6.5 5 13 0 15 1 4 0 7 5.5 1.5 7 7 9 8.5-1.5 11.5-2 6-4 7.5-5.5 2-5 5-9 .5-10 5.5-4 6.5 10 8 11.5-1.5 4.5 4.5 1.5 4-3 7.5-5 4.5-1.5 9 1 1.5 3 8 4 11.5 5 11.5 0 6-.427 6-5 0-5.927 1.5-5.927h8v22.427l-48.5 11-88.5-5c-7.667-15-12.167-23.167-13.5-24.5-2-2-10-13.5-6.5-14.5zM44 29.135c.667 2.333 1.5 3.833 2.5 4.5.726.484 5.21 4.153 6 5 .842.902 13 6 15.5 9 1.667 2 5.667 3 12 3l22 9 24.5-5-3.502-6.005c14.49-.213 22.158-.712 23.002-1.495.844-.784-1.99-4.284-8.5-10.5l-26.5-4-19.5-11c-12.667 3.333-19.5 5-20.5 5s-10 .833-27 2.5z" fill="#474864" mask="url(#k)"/><path d="M63.5 57.635c.333 2.333 0 3.5-1 3.5s-1.833.666-2.5 2h3.5c2 0 3.5-2 3-2.75s-1-1.75-1.5-2.25c-.333-.334-.833-.5-1.5-.5zM68.5 77.135c1-1.5 2.5-3 2-4.5-.333-1 .333-2.167 2-3.5.333-.667.667.166 1 2.5.5 3.5-.55 5.5-1.5 6s-4.5 1-3.5-.5zM42 68.9c1.5 0 3-1 4-1.5s1-2 .5-2.5c-.333-.333.167-1.5 1.5-3.5-2-.667-3-.5-3 .5 0 1.5-1 2.1-1 3.05 0 .95-2 2.45-2.5 2.95s-1 1 .5 1zM63.5 78.403c1 1 1.5 1 1.5 2.5 0 1-.667 2.166-2 3.5-2 0-2.5-.5-1.5-1.5 1.5-1.5 1-1.5 1-3s0-2.5 1-1.5zM126 73.135c1.667 1.333 3.167 2.166 4.5 2.5 1.333.333 2.333.5 3 .5 1.11.044 1.777-.123 2-.5.99-1.675.498-3 0-3-1 0-2 1-3.5.5s-1.5-.5-3-.5c-1 0-2 .166-3 .5zM144.5 71.635c.333-2.667.333-4.167 0-4.5-.5-.5-2.5-2.5-2.5-1.5s2.75.724 1.375 2.862-.375 4.638.625 3.638l.5-.5z" fill="#474864" mask="url(#k)"/></g></g><g mask="url(#g)"><g transform="translate(201 363)"><mask id="m" fill="#fff"><use xlink:href="#l"/></mask><use fill="#686C89" xlink:href="#l"/><path d="M5.5 7.635c0 1.5-1 2 1.5 3.5s4 3 7 1.5 7.5-2.19 9-2.19 8.5.69 10 .69 3.5-.5 5-2c1-1 4.5-1.5 10.5-1.5 6.333 1.414 11 2.35 14 2.81 4.5.69 10.5 3.19 10.5 6.69 0 3.5 2.5 9.5-12 11s-23-.5-28-2.5-10.5-7-19-5-18.5-1.5-20-3.5c-1-1.334-1.5-3.334-1.5-6 8.667-3.334 13-4.5 13-3.5z" fill="#474864" mask="url(#m)"/></g></g><g mask="url(#g)"><g transform="translate(258 352)"><mask id="o" fill="#fff"><use xlink:href="#n"/></mask><use fill="#686C89" xlink:href="#n"/><path d="M-.5 7.135c3.667 1.5 6 2 7 1.5 1.5-.75 3.5-2 5-3s3-1.5 3.5-2.5 3-2 4-1 5.5 3.5 4.5 6.5 0 5.5-5.5 6.5-16 0-18.5-1c-1.667-.667-1.667-3 0-7z" fill="#474864" mask="url(#o)"/></g></g><path fill="#8889AB" mask="url(#g)" d="M152 278.974v-30.09l28 18.56v30.06z"/><g mask="url(#g)"><use fill="#000" filter="url(#p)" xlink:href="#q"/><use fill="#F8A863" xlink:href="#q"/></g><path d="M155 271.304V268.4a.4.4 0 0 1 .621-.333l1.879 1.245v3.659l-2.5-1.667zm0 1.202l2.5 1.667v3.812l-2.07-1.435a1 1 0 0 1-.43-.822v-3.222zm5.992 2.793l-2.492-1.662v-3.662l2.045 1.355a1 1 0 0 1 .447.834v3.135zm0 1.202v3.14a.4.4 0 0 1-.628.329l-1.864-1.292v-3.839l2.492 1.662z" fill="#474864" mask="url(#g)"/><g mask="url(#g)"><use fill="#000" filter="url(#r)" xlink:href="#s"/><use fill="#F8A863" xlink:href="#s"/></g><path d="M170 281.304V278.4a.4.4 0 0 1 .621-.333l1.879 1.245v3.659l-2.5-1.667zm0 1.202l2.5 1.667v3.812l-2.07-1.435a1 1 0 0 1-.43-.822v-3.222zm5.992 2.793l-2.492-1.662v-3.662l2.045 1.355a1 1 0 0 1 .447.834v3.135zm0 1.202v3.14a.4.4 0 0 1-.628.329l-1.864-1.292v-3.839l2.492 1.662z" fill="#474864" mask="url(#g)"/><path fill="#8889AB" mask="url(#g)" d="M197.446 252.202v-7.567l-3.294 1-4.152-3v4.5z"/><path fill="#8889AB" mask="url(#g)" d="M193 241.635l4.446 3-3.294 1-4.152-3z"/><path fill="#5B5C7A" mask="url(#g)" d="M180 267.635l21-13-3.554-2.433v-7.567l-3.294 1v4.312L191 247.79z"/><path fill="#5B5C7A" mask="url(#g)" d="M201 283.974v-29.34l-21 13v29.87z"/><path fill="#A4A6CA" mask="url(#g)" d="M164.5 230.135l-14 21 30 19 12-21.345z"/><g mask="url(#g)"><use fill="#474864" xlink:href="#t"/><path stroke="#474864" d="M163.1 286.4v-13.123a.6.6 0 0 1 .922-.507l3.382 2.148a1.5 1.5 0 0 1 .696 1.266v13.591l-5-3.375z"/></g></g><text transform="rotate(-65 236.137 138.687)" font-family="Merriweather-Italic, Merriweather" font-size="19.8" font-style="italic" fill="#E1DDD2"><tspan x="231.637" y="145.687">1</tspan></text><path d="M259.549 186.22c-.09.45-.224.927-.405 1.433-.18.506-.42.933-.717 1.28-.299.348-.636.621-1.012.82a3.543 3.543 0 0 1-1.218.381c-.436.055-.884.06-1.344.014a8.134 8.134 0 0 1-2.731-.826c-.88-.442-1.621-.899-2.225-1.37a10.516 10.516 0 0 1-1.625-1.572 9.798 9.798 0 0 1-1.2-1.806 8.478 8.478 0 0 1-.708-1.91c-.306-1.327-.253-2.569.16-3.727.39-1.1.89-2.066 1.495-2.9l.212-.285 2.93 2.15-.364 1.021-2.292-.914c-.277.156-.497.402-.66.738-.164.336-.32.711-.466 1.124-.148.413-.194.89-.138 1.433.055.542.201 1.065.438 1.568.237.503.543.982.917 1.438 1.028 1.243 2.307 2.25 3.838 3.018 1.315.661 2.497.98 3.545.958 1.185-.03 1.952-.532 2.3-1.51.275-.774.342-1.498.2-2.173a1.396 1.396 0 0 0-.258-.603l-1.471-1.439.384-1.051 2.703 1.769c-.009.174-.016.407-.023.698-.006.292-.03.627-.07 1.004-.04.377-.106.79-.195 1.24zm4.335-11.763c-.269.757-.77.927-1.5.512-.48-.275-.99-.612-1.533-1.012-.542-.399-.928-.682-1.158-.848-.229-.167-.48-.353-.752-.558a25.148 25.148 0 0 0-.845-.61c-.653-.465-1.176-.797-1.57-.994-.392-.197-.686-.314-.881-.35-.195-.037-.355-.031-.48.016-.18.074-.32.25-.418.526a2.254 2.254 0 0 0-.12.89c.017.318.076.656.176 1.016.215.773.556 1.53 1.023 2.273l6.094 4.09-.603 1.692-12.056-8.04-.734.845-.656-.505.468-2.501.392-.338 5.785 3.883c-.734-1.274-1.09-2.469-1.07-3.583.01-.386.073-.74.188-1.063.115-.323.26-.583.434-.78.174-.197.394-.329.659-.395.55-.149 1.283.007 2.2.467a11.01 11.01 0 0 1 1.656 1.059l1.225.913 1.277.91c.912.642 1.47.99 1.673 1.04.204.05.32.035.349-.046.072-.204.024-.595-.146-1.174l.54-.048c.156.223.278.52.367.894.175.753.18 1.36.016 1.82zm1.985-9.98c.618 1.202.746 2.312.384 3.33-.336.943-.941 1.493-1.816 1.65-.817.145-1.783-.062-2.9-.623-.916-.46-1.781-1.159-2.595-2.096-1.363-1.562-2.062-3.217-2.098-4.963a4.842 4.842 0 0 1 .28-1.774c.202-.57.512-1.11.929-1.621l.08-1.185 7.919 5.326c.223.146.396.21.52.194.123-.017.207-.088.251-.213.045-.125-.005-.42-.148-.882l.549-.044c.14.188.254.454.34.799.168.695.177 1.255.025 1.68-.263.738-.739.935-1.428.589l-.12-.06-.172-.108zm-7.093-4.736c-.285.18-.508.496-.67.95a3.06 3.06 0 0 0-.185 1.31c.038.421.143.832.315 1.235.173.402.4.788.68 1.159.28.37.589.716.925 1.035.656.625 1.28 1.085 1.869 1.381.589.296 1.061.496 1.417.6.356.103.67.15.941.142.567-.01.93-.236 1.087-.678.265-.745.188-1.6-.234-2.566a5.817 5.817 0 0 0-.367-.72l-5.778-3.848zm11.482-4.14c.013.603-.063 1.137-.229 1.603a6.454 6.454 0 0 1-.618 1.284l4.186 2.833-.59 1.658-12.188-8.21-.774.732-.62-.496.371-2.51.351-.306.995.684c-.584-1.13-.702-2.184-.354-3.161.348-.978.964-1.55 1.849-1.715.827-.154 1.795.047 2.905.605 1.458.732 2.679 1.921 3.663 3.568.678 1.13 1.03 2.273 1.053 3.43zm-1.989 2.107c.313-.2.554-.536.722-1.01.17-.475.232-.918.187-1.331a3.86 3.86 0 0 0-.342-1.216 5.817 5.817 0 0 0-.708-1.149 8.667 8.667 0 0 0-.948-1.026 9.496 9.496 0 0 0-2.22-1.557c-.794-.399-1.46-.58-2-.542-.541.037-.892.282-1.054.736-.238.67-.157 1.488.243 2.457.106.267.222.507.347.72l5.773 3.918zm4.987-9.563c-.38 1.064-1.079 1.34-2.098.829l-.094-.047c-.176-.089-.511-.298-1.004-.628l-5.9-3.9-.373 1.047-.681-.547-.019-1.275c-.27-.526-.888-1.294-1.858-2.302l.295-.83 2.123 1.417.815-2.286 1.124.77-.805 2.26 5.088 3.41c.654.445 1.102.728 1.344.85.242.121.418.198.527.229.11.03.203.035.278.01.142-.038.25-.16.323-.367.073-.207.114-.4.121-.582.008-.181.003-.37-.015-.564a6.062 6.062 0 0 0-.176-1.034l.722.177c.332.633.472 1.475.42 2.526-.018.313-.07.592-.157.837zm1.647-8.556c.38-1.065.316-2.262-.19-3.593l.852-.046c.306.497.517 1.13.632 1.902.15.933.103 1.744-.142 2.434-.246.69-.556 1.2-.93 1.534-.731.661-1.634.887-2.707.677-.463-.095-.817-.204-1.061-.327a31.61 31.61 0 0 1-.794-.414c-.285-.153-.664-.422-1.137-.808a9.771 9.771 0 0 1-1.288-1.259 9.25 9.25 0 0 1-1.004-1.435 7.124 7.124 0 0 1-.651-1.536c-.318-1.106-.31-2.125.02-3.056.432-1.21 1.137-1.768 2.117-1.673.3.027.634.133 1.004.319s.699.474.985.865c.287.391.513.827.678 1.307.164.48.275.985.331 1.515.057.529.077 1.043.06 1.542-.024 1.01-.143 1.832-.355 2.466.115.072.224.133.327.185.102.051.226.11.37.175.145.066.334.127.57.183.234.057.47.089.705.097a1.87 1.87 0 0 0 .66-.09c.459-.154.774-.475.948-.964zm-4.504-.102c.263-.869.305-1.836.127-2.899-.121-.754-.376-1.375-.765-1.866-.197-.257-.481-.478-.851-.664-.37-.186-.692-.228-.967-.125-.275.102-.467.308-.578.62-.111.31-.144.625-.1.943.045.317.143.632.293.944.15.312.34.62.568.923a8.9 8.9 0 0 0 .732.856 9.744 9.744 0 0 0 1.541 1.268zm-.214-10.478l-.824.615-.704-.538.309-2.336.354-.316 1.873 1.157a5.348 5.348 0 0 1-1.181-2.96c-.035-.428-.007-.77.084-1.027.158-.442.287-.682.388-.72l1.64 1.275c-.138.123-.265.346-.38.67a3.23 3.23 0 0 0-.196.888c-.015.27.012.56.083.87.17.71.556 1.398 1.158 2.063l5.838 3.848-.606 1.702-7.836-5.191z" fill="#E1DDD2"/><path d="M411.21 378.204s1.037-12.551 12.363-18.798" stroke="#F8A863" stroke-width="3.24" stroke-linecap="round" stroke-linejoin="round"/><path d="M274.5 336.5c-3.955-3.885-5.005-5.652-3.15-5.3 26.1 4.95 40.65 9.8 55.8 32.4 15.15 22.6 20.7 25.2 23.85 29.25 3.15 4.05 2.406 8.765-.45 13.05-.419.628-4.05 4.95-9.9 6.3-3.93.907-8.26.749-9.9.45-.801-.146.79-.608 0-.45-1.25.177 10.439-1.326 14.4-3.6.838-.481.9-2.307.9-2.7 0-5.03-5.473-6.348-17.55-19.9-6.291-7.06-10.344-18.84-22-30.5-8.997-9-21.97-12.499-43.555-16.32.37.214 4.222-.68 11.555-2.68z" fill="#F8A863"/><path d="M292 335.5c-1.333-.667-3.167-.833-5.5-.5-3.5.5-3.5 2-3.5 2.5s-1.5 1.5 6 1.5 8-1 8.5-1.5c.333-.333.5-1.667.5-4l-4.5 1.5-1.5.5z" fill="#23243B"/><path d="M295.884 337.251c-.888.534-2.516 1.194-4.884 1.98-3.552 1.181-1.595 2.732-1.5 3.269.095.537 4.852 0 10 0s2.574-4.62 3-5.249c.284-.42.036-1.503-.743-3.251l-4.405 2.438-1.468.813z" fill="#23243B"/><path d="M344.7 408.028c-1.37.165-3.47-.094-6.3-.778l-7.65 4.95c8.7.6 13.68-.79 14.943-4.172.144-.388.676-2.261.357-2.128-.45 1.8-.9 1.8-1.35 2.128z" fill="#B16E35"/><path d="M48.505 175.403c11.771 6.156 26.41 1.98 33.115-9.631 6.881-11.92 2.797-27.16-9.122-34.042a25.17 25.17 0 0 0-2.748-1.371 27.56 27.56 0 0 1 14.186 3.712c13.243 7.646 17.78 24.58 10.135 37.824-7.646 13.243-24.58 17.78-37.824 10.134a27.62 27.62 0 0 1-7.742-6.626z" fill="#FFF"/><g transform="translate(205 217)"><mask id="v" fill="#fff"><use xlink:href="#u"/></mask><use fill="#A4A6CA" xlink:href="#u"/><path d="M2.5 43l7 5.5c.667 8.667 2.333 14.333 5 17 .667-39.333 1.167-61 1.5-65 .333-4 4-8 11-12 6.667 39 10 59.333 10 61 0 1.667-2.833 11.167-8.5 28.5l-27 5.5c-8.333-4.667-12-7.5-11-8.5s5-11.667 12-32z" fill="#5B5C7A" mask="url(#v)"/></g><ellipse fill="#5B5C7A" cx="217.75" cy="216" rx="8.75" ry="4"/><ellipse fill="#A4A6CA" cx="217.75" cy="214" rx="7.5" ry="3.429"/><use fill="#000" filter="url(#w)" xlink:href="#x"/><use fill="#F8A863" xlink:href="#x"/><path d="M216.587 204.5l-170-57c-34.725 80.333-18.725 147.333 48 201l122-132.5c-.725-2.342-1.087-4.175-1.087-5.5 0-1.325.362-3.325 1.087-6z" fill="url(#y)" opacity=".7"/><path d="M210.134 209.029c-.722.582-1.134 1.254-1.134 1.971 0 2.21 3.918 4 8.75 4s8.75-1.79 8.75-4c0-.746-.447-1.445-1.225-2.043" stroke="#5B5C7A"/><ellipse fill="#5B5C7A" cx="217.75" cy="202" rx="7.5" ry="3.429"/><path d="M211.579 309.082c-.476-1.442-.238-2.645.714-3.606 1.428-1.443 3.57.721 3.57 2.164 0 1.442-.715 2.164 0 2.164.713 0 2.855-1.443 3.568-2.164l2.142-2.164c.714-.722 2.856 0 1.428 1.442-.787.795-1.236 2.091-2.142 2.886-.738.648-1.846 1.654-2.855 2.163l-1.428.722c.53 2.563.795 4.005.795 4.328 0 .483 3.488-.722 4.916 1.442 1.428 2.164 2.855 4.328 3.57 5.05.713.72-1.428 2.163-2.142 1.442-.714-.721-2.856-3.607-3.57-4.328-.714-.721-4.283-.721-4.283-.721s-.714 2.885-.714 4.328c0 .855.537 1.436.714 2.163.313 1.288.456 2.425 0 2.886-.714.721-2.855 1.442-2.855-.722 0-2.164-.714-2.164-.714-4.327v-5.77c0-.96-1.428-4.329-1.428-4.329s-1.216 1.21-1.428 2.886c-.111.883.714 2.138.714 2.885 0 2.164-1.428 1.442-2.141.721-.714-.721-1.428-2.885-.714-5.049.714-2.164 1.427-3.607 2.855-4.328.556-.28 1.748-.277 2.142-.721.187-.212-.051-.692-.714-1.443z" stroke="#FFF" stroke-width="1.452" stroke-linecap="round" stroke-linejoin="round"/><path d="M132 337.25v10.012c.736.393 1.236.556 1.5.488.264-.068.43-.4.5-1v-10.5c-.667-.333-1.167-.333-1.5 0-.333.333-.5.667-.5 1z" fill="#5B5C7A"/><path fill="#686C89" d="M159.5 323L131 340.5l9 5.5 29.5-17z"/><path fill="#474864" d="M140 348.5l-9-5.5v-2.5l9 5.5 29.5-19 .5 2z"/><path d="M140.9 343v10.012c.736.393 1.236.556 1.5.488.264-.068.43-.4.5-1V342c-.667-.333-1.167-.333-1.5 0-.333.333-.5.667-.5 1zM148 339.25v10.012c.736.393 1.236.556 1.5.488.264-.068.43-.4.5-1v-10.5c-.667-.333-1.167-.333-1.5 0-.333.333-.5.667-.5 1zM154.6 335.25v9.012c.736.393 1.236.556 1.5.488.264-.068.43-.4.5-1v-9.5c-.667-.333-1.167-.333-1.5 0-.333.333-.5.667-.5 1zM161 330.25v7.012c.736.393 1.236.556 1.5.488.264-.068.43-.4.5-1v-7.5c-.667-.333-1.167-.333-1.5 0-.333.333-.5.667-.5 1z" fill="#5B5C7A"/><path d="M154 368c-3.71-.58-5.71-.58-6 0-.434.869 1 6 9.5 10.5s19 6 29 1.5c-8 0-18.833-4-32.5-12z" fill="#474864"/><path d="M153.5 368.5c-1.517-.499-3.183-.832-5-1 3.576-2.612 6.41-4.279 8.5-5 2.09-.721 4.09-.721 6 0 13.667 8.333 21.5 14.167 23.5 17.5-12 0-30.725-10.752-33-11.5z" fill="#F8A863"/><path d="M172.354 366.463c-2.333.333-3.833.333-4.5 0-.667-.334.833.666 4.5 3 .333-.375.5-.886.5-1.532s-.167-1.135-.5-1.468zM152 366.5c1.408.416 2.408.75 3 1 9.236 3.91 13.588 6.696 14.5 7 1.5.5 5.5-2 5.5-2.5s-12.5-8.5-14.5-9c-1.333-.333-4.167.833-8.5 3.5z" fill="#474864"/><path d="M176 372l-3.5-5.5c.667 1.333.167 2.333-1.5 3-2.5 1-6.5.5-8 .5-1 0-2 .167-3 .5 5.667 3 9.5 4.5 11.5 4.5s3.5-1 4.5-3z" fill="#FFF"/><g transform="translate(247 228)"><mask id="A" fill="#fff"><use xlink:href="#z"/></mask><use fill="#E9BF94" xlink:href="#z"/><path d="M1.5 17.5c3.333-3 5.167-4.833 5.5-5.5.5-1 2 2 3 1s1-3 2-2 2 4 1.5 9 5-1.31 6-2.5-1-13.5-2-14S2.5.5.5 2s-4 11-3.5 11c.333 0 1.833 1.5 4.5 4.5z" fill="#BF9870" mask="url(#A)"/></g><path d="M292.5 287.5c-1.077 10.71-1.744 17.877-2 21.5-.281 3.975.76 8.39 1 12 .34 5.142 0 9.322 0 14 0 2 9.672 7.188 12-18.5.221-2.44-.28-21.75-4-30-.806-1.788-3.14-1.454-7 1z" fill="#5B5C7A"/><path d="M266 252.5c3 1 5.167 2.667 6.5 5 2 3.5 8.5 9 10.5 12.5s2.5 2.5 4 3.5c1 .667 3-.5 6-3.5-1.667-3.667-3.167-5.833-4.5-6.5-2-1-3.5-4-4.5-4-.667 0-6.667-2.333-18-7z" fill="#CE8342"/><path fill="#CE8342" d="M290.5 265.5l-4 29.5 4.5-4.5 1.5-23.5z"/><g transform="translate(297 276)"><mask id="C" fill="#fff"><use xlink:href="#B"/></mask><use fill="#8889AB" xlink:href="#B"/><path d="M-.5 21c4.333-3 7.333-5 9-6C9 19 5 32.5 6 35s2 12.5 1 17.5c-.667 3.333-2 7.667-4 13 3.333 1.333 5.5 1.5 6.5.5 1.5-1.5 12.5-23 14-33s3.5-30.5 1-31.5-10.814-3-11.907-2.5C11.864-.667 6.5 7.333-3.5 23l3-2z" fill="#6F7091" mask="url(#C)"/></g><path d="M254 226c3.333-.333 6 1.167 8 4.5s2.333 6 1 8c-1 1.333-1.667 1.667-2 1-.5-1-.7-5.394-2.1-6-1.4-.606-2.4 1-2.4 2 0 .667.167 1.667.5 3-1.333.333-2.167-.167-2.5-1.5-.333-1.333-1.667-2.702-4-4.106V229.5c0-.333 1.167-1.5 3.5-3.5z" fill="#23243B"/><g transform="translate(260 226)"><mask id="E" fill="#fff"><use xlink:href="#D"/></mask><use fill="#F8A863" xlink:href="#D"/><path d="M1 .5c1.333 3.667 2.667 6.333 4 8C6.333 10.167 6.333 14 5 20c2.333-3.667 5.333-5.5 9-5.5 5.5 0 9 1.5 9.5 5.5s.5 13.5 5 16.5 7.5-3 9.5.5 6 16.5 4 32c-1.333 10.333-3.667 15.5-7 15.5L77.5 73c-7.667-34.667-12.667-53.167-15-55.5C59 14 12-7.5 6.5-8.5 2.833-9.167 1-6.167 1 .5z" fill="#E79854" mask="url(#E)"/></g><g transform="translate(267 240)"><mask id="G" fill="#fff"><use xlink:href="#F"/></mask><use fill="#F8A863" xlink:href="#F"/><path d="M15.5 3.5c-1.92 1.354-2.8 2.779-2.64 4.276 1.205 11.26 1.252 18 .14 20.224-1.333 2.667-6.167 4.333-14.5 5L-7 45.5c13.667.333 20.667-.167 21-1.5.5-2 9.5-28.5 9.5-29.5 0-.667-1.667-6.167-5-16.5l-3 5.5z" fill="#E79854" mask="url(#G)"/></g><path d="M298 248.5c-1 5.667-4.333 11.333-10 17 1 1 1.833 1.333 2.5 1 5.333-6.667 8.333-12.167 9-16.5-.667-1-1.167-1.5-1.5-1.5z" fill="#F9D6B8"/><path d="M308 263c-4.333 5.333-7 8.333-8 9 3.5 5 4 9 7.5 5.5 2.333-2.333 2.5-7.167.5-14.5z" fill="#CE8342"/><path d="M264 269c-1.667.667-2.833 1-3.5 1-1 0-6-2.5-9-1.5s-1 3-1 3.5 0 1.5 1 2.5.5 1 1.5 1.5 3.5 1 5.5 0c1.333-.667 3.333-1 6-1l-.5-6z" fill="#E9BF94"/><path d="M262.5 266.5l4.5-.5c2 3 2.5 7 1.5 12-3 .667-4.667 1-5 1 .333-1.667.5-3.667.5-6s-.5-4.5-1.5-6.5z" fill="#F9D6B8"/><g transform="translate(241 222)"><mask id="I" fill="#fff"><use xlink:href="#H"/></mask><use fill="#8889AB" xlink:href="#H"/><path d="M2.5 2c.5.5 0 2.5 1.5 2s2-1 3-1.5 3.5-.5 4 4-2.5 7-3 8.5c-.333 1-.5 2-.5 3 7-3.333 10.667-5 11-5 .5 0 5.5-9.5 5-11S19-4.5 15-4 9-5 7-3 2 1.5 2.5 2z" fill="#5B5C7A" mask="url(#I)"/></g><path d="M238 247c.136.368.302.535.5.5 4.962-.877 9.725-4.467 13.5-9.5 6-8 8.5-15.5 11-18-5.5 4-5.5 5.5-6.5 7s-3 7-12 16c-1.333 1.333-3.5 2.667-6.5 4z" fill="#474864"/><path d="M287.5 266.5c-2 .667-2.667 1.5-2 2.5 1 1.5-.5 3 1.5 3s3-.5 3.5-1 0-1.5-.5-2.5c-.333-.667-1.167-1.333-2.5-2z" fill="#E9BF94"/><path d="M254.5 270c-6-1.667-9.167-2.5-9.5-2.5-.5 0-2 2.5-1 2.5s8.5 2 9.5 2c.667 0 1-.667 1-2z" fill="#474864"/><path d="M237.304 270.198c3.35.835 6.207-.093 6.547-1.46.341-1.366-1.745-3.526-5.096-4.362-3.35-.835-6.207.093-6.547 1.46-.341 1.366 1.745 3.526 5.096 4.362zm-.242 1.97c-4.287-1.069-7.275-3.89-6.674-6.302.601-2.411 4.564-3.5 8.851-2.43 4.287 1.068 7.275 3.89 6.674 6.301-.601 2.412-4.564 3.5-8.851 2.431z" fill="#23243B" fill-rule="nonzero"/><path d="M237.304 269.198c3.35.835 6.207-.093 6.547-1.46.341-1.366-1.745-3.526-5.096-4.362-3.35-.835-6.207.093-6.547 1.46-.341 1.366 1.745 3.526 5.096 4.362zm-.242 1.97c-4.287-1.069-7.275-3.89-6.674-6.302.601-2.411 4.564-3.5 8.851-2.43 4.287 1.068 7.275 3.89 6.674 6.301-.601 2.412-4.564 3.5-8.851 2.431z" fill="#5B5C7A" fill-rule="nonzero"/></g></svg>