<svg height="512" viewBox="0 0 512 512" width="512" xmlns="http://www.w3.org/2000/svg"><rect fill="#4b55a5" height="352" rx="16" width="224" x="256" y="120"/><path d="m432 168h48v16h-48z" fill="#a5c3dc"/><path d="m432 200h48v16h-48z" fill="#a5c3dc"/><rect fill="#6478b9" height="352" rx="16" width="176" x="256" y="120"/><rect fill="#d7322d" height="240" rx="16" width="240" x="192" y="232"/><path d="m368 264h64v64h-64z" fill="#f0915a"/><circle cx="400" cy="296" fill="#fab991" r="16"/><rect fill="#a5c3dc" height="384" rx="16" width="208" x="160" y="88"/><path d="m336 120h32v32h-32z" fill="#d7e6f0"/><rect fill="#353744" height="432" rx="16" width="240" x="96" y="40"/><rect fill="#55525b" height="432" rx="16" width="176" x="96" y="40"/><rect fill="#d7322d" height="304" rx="16" width="240" x="32" y="168"/><rect fill="#f04b37" height="304" rx="16" width="176" x="32" y="168"/><path d="m208 200h64v32h-64z" fill="#f0915a"/><path d="m208 408h64v32h-64z" fill="#f0915a"/><g fill="#55525b"><rect height="32" rx="8" transform="matrix(0 1 -1 0 528 -80)" width="208" x="200" y="208"/><rect height="32" rx="8" transform="matrix(0 1 -1 0 704 96)" width="80" x="264" y="384"/><circle cx="304" cy="88" r="16"/></g></svg>